<mxfile host="app.diagrams.net" modified="2023-05-24T15:14:30.061Z" agent="Mozilla/5.0 (X11; Ubuntu; Linux x86_64; rv:109.0) Gecko/20100101 Firefox/113.0" etag="Y2RtAGiqMh19yiKjY1Dn" version="21.3.3" type="github" pages="4">
  <diagram name="Página-1" id="cWC8d3NK6_t84Jh-JK6W">
    <mxGraphModel dx="1434" dy="773" grid="1" gridSize="10" guides="1" tooltips="1" connect="1" arrows="1" fold="1" page="1" pageScale="1" pageWidth="827" pageHeight="1169" math="0" shadow="0">
      <root>
        <mxCell id="0" />
        <mxCell id="1" parent="0" />
        <mxCell id="XfLcMX_LtJFemOF8QyQm-1" value="Persona" style="rounded=1;arcSize=10;whiteSpace=wrap;html=1;align=center;" parent="1" vertex="1">
          <mxGeometry x="200" y="40" width="100" height="40" as="geometry" />
        </mxCell>
        <mxCell id="XfLcMX_LtJFemOF8QyQm-2" value="Cantante" style="rounded=1;arcSize=10;whiteSpace=wrap;html=1;align=center;" parent="1" vertex="1">
          <mxGeometry x="350" y="200" width="100" height="40" as="geometry" />
        </mxCell>
        <mxCell id="XfLcMX_LtJFemOF8QyQm-3" value="DJ" style="rounded=1;arcSize=10;whiteSpace=wrap;html=1;align=center;" parent="1" vertex="1">
          <mxGeometry x="40" y="200" width="100" height="40" as="geometry" />
        </mxCell>
        <mxCell id="XfLcMX_LtJFemOF8QyQm-5" value="Contenido" style="rounded=1;arcSize=10;whiteSpace=wrap;html=1;align=center;" parent="1" vertex="1">
          <mxGeometry x="210" y="350" width="100" height="40" as="geometry" />
        </mxCell>
        <mxCell id="XfLcMX_LtJFemOF8QyQm-6" value="Sesión" style="rounded=1;arcSize=10;whiteSpace=wrap;html=1;align=center;" parent="1" vertex="1">
          <mxGeometry x="300" y="450" width="100" height="40" as="geometry" />
        </mxCell>
        <mxCell id="XfLcMX_LtJFemOF8QyQm-7" value="Canción" style="rounded=1;arcSize=10;whiteSpace=wrap;html=1;align=center;" parent="1" vertex="1">
          <mxGeometry x="490" y="420" width="100" height="40" as="geometry" />
        </mxCell>
        <mxCell id="XfLcMX_LtJFemOF8QyQm-8" value="Categoría" style="rounded=1;arcSize=10;whiteSpace=wrap;html=1;align=center;" parent="1" vertex="1">
          <mxGeometry x="500" y="490" width="100" height="40" as="geometry" />
        </mxCell>
        <mxCell id="XfLcMX_LtJFemOF8QyQm-9" value="Género" style="rounded=1;arcSize=10;whiteSpace=wrap;html=1;align=center;" parent="1" vertex="1">
          <mxGeometry x="330" y="530" width="100" height="40" as="geometry" />
        </mxCell>
      </root>
    </mxGraphModel>
  </diagram>
  <diagram id="U9bX2aDy6mglo_rnLMRo" name="Página-2">
    <mxGraphModel dx="2074" dy="1148" grid="1" gridSize="10" guides="1" tooltips="1" connect="1" arrows="1" fold="1" page="1" pageScale="1" pageWidth="827" pageHeight="1169" math="0" shadow="0">
      <root>
        <mxCell id="0" />
        <mxCell id="1" parent="0" />
        <mxCell id="1tVvIyLN_Oq6n6Y1Ejoi-1" value="Persona" style="rounded=1;arcSize=10;whiteSpace=wrap;html=1;align=center;" parent="1" vertex="1">
          <mxGeometry x="202.5" y="40" width="100" height="40" as="geometry" />
        </mxCell>
        <mxCell id="1tVvIyLN_Oq6n6Y1Ejoi-2" value="Cantante" style="rounded=1;arcSize=10;whiteSpace=wrap;html=1;align=center;" parent="1" vertex="1">
          <mxGeometry x="364" y="260" width="100" height="40" as="geometry" />
        </mxCell>
        <mxCell id="1tVvIyLN_Oq6n6Y1Ejoi-3" value="DJ" style="rounded=1;arcSize=10;whiteSpace=wrap;html=1;align=center;" parent="1" vertex="1">
          <mxGeometry x="30" y="260" width="100" height="40" as="geometry" />
        </mxCell>
        <mxCell id="1tVvIyLN_Oq6n6Y1Ejoi-4" value="Contenido" style="rounded=1;arcSize=10;whiteSpace=wrap;html=1;align=center;" parent="1" vertex="1">
          <mxGeometry x="200" y="400" width="100" height="40" as="geometry" />
        </mxCell>
        <mxCell id="1tVvIyLN_Oq6n6Y1Ejoi-5" value="Sesión" style="rounded=1;arcSize=10;whiteSpace=wrap;html=1;align=center;" parent="1" vertex="1">
          <mxGeometry x="40" y="565" width="100" height="40" as="geometry" />
        </mxCell>
        <mxCell id="1tVvIyLN_Oq6n6Y1Ejoi-17" style="edgeStyle=orthogonalEdgeStyle;rounded=0;orthogonalLoop=1;jettySize=auto;html=1;entryX=0.5;entryY=0;entryDx=0;entryDy=0;exitX=0.5;exitY=1;exitDx=0;exitDy=0;" parent="1" source="1tVvIyLN_Oq6n6Y1Ejoi-5" target="1tVvIyLN_Oq6n6Y1Ejoi-7" edge="1">
          <mxGeometry relative="1" as="geometry" />
        </mxCell>
        <mxCell id="1tVvIyLN_Oq6n6Y1Ejoi-18" style="edgeStyle=orthogonalEdgeStyle;rounded=0;orthogonalLoop=1;jettySize=auto;html=1;exitX=0.5;exitY=1;exitDx=0;exitDy=0;entryX=0.5;entryY=0;entryDx=0;entryDy=0;" parent="1" source="1tVvIyLN_Oq6n6Y1Ejoi-6" target="1tVvIyLN_Oq6n6Y1Ejoi-8" edge="1">
          <mxGeometry relative="1" as="geometry" />
        </mxCell>
        <mxCell id="1tVvIyLN_Oq6n6Y1Ejoi-6" value="Canción" style="rounded=1;arcSize=10;whiteSpace=wrap;html=1;align=center;" parent="1" vertex="1">
          <mxGeometry x="380" y="560" width="100" height="40" as="geometry" />
        </mxCell>
        <mxCell id="1tVvIyLN_Oq6n6Y1Ejoi-7" value="Categoría" style="rounded=1;arcSize=10;whiteSpace=wrap;html=1;align=center;" parent="1" vertex="1">
          <mxGeometry x="40" y="680" width="100" height="40" as="geometry" />
        </mxCell>
        <mxCell id="1tVvIyLN_Oq6n6Y1Ejoi-8" value="Género" style="rounded=1;arcSize=10;whiteSpace=wrap;html=1;align=center;" parent="1" vertex="1">
          <mxGeometry x="380" y="680" width="100" height="40" as="geometry" />
        </mxCell>
        <mxCell id="1tVvIyLN_Oq6n6Y1Ejoi-10" style="edgeStyle=orthogonalEdgeStyle;rounded=0;orthogonalLoop=1;jettySize=auto;html=1;exitX=0.78;exitY=0.5;exitDx=0;exitDy=0;exitPerimeter=0;" parent="1" source="1tVvIyLN_Oq6n6Y1Ejoi-9" target="1tVvIyLN_Oq6n6Y1Ejoi-3" edge="1">
          <mxGeometry relative="1" as="geometry" />
        </mxCell>
        <mxCell id="1tVvIyLN_Oq6n6Y1Ejoi-11" style="edgeStyle=orthogonalEdgeStyle;rounded=0;orthogonalLoop=1;jettySize=auto;html=1;entryX=0.57;entryY=0.075;entryDx=0;entryDy=0;entryPerimeter=0;exitX=0.22;exitY=0.5;exitDx=0;exitDy=0;exitPerimeter=0;" parent="1" source="1tVvIyLN_Oq6n6Y1Ejoi-9" target="1tVvIyLN_Oq6n6Y1Ejoi-2" edge="1">
          <mxGeometry relative="1" as="geometry" />
        </mxCell>
        <mxCell id="1tVvIyLN_Oq6n6Y1Ejoi-12" style="edgeStyle=orthogonalEdgeStyle;rounded=0;orthogonalLoop=1;jettySize=auto;html=1;exitX=0.5;exitY=1;exitDx=0;exitDy=0;exitPerimeter=0;" parent="1" source="1tVvIyLN_Oq6n6Y1Ejoi-9" target="1tVvIyLN_Oq6n6Y1Ejoi-1" edge="1">
          <mxGeometry relative="1" as="geometry" />
        </mxCell>
        <mxCell id="1tVvIyLN_Oq6n6Y1Ejoi-9" value="" style="strokeWidth=2;html=1;shape=mxgraph.flowchart.extract_or_measurement;whiteSpace=wrap;rotation=-180;" parent="1" vertex="1">
          <mxGeometry x="205" y="150" width="95" height="60" as="geometry" />
        </mxCell>
        <mxCell id="1tVvIyLN_Oq6n6Y1Ejoi-14" style="edgeStyle=orthogonalEdgeStyle;rounded=0;orthogonalLoop=1;jettySize=auto;html=1;entryX=0.5;entryY=0;entryDx=0;entryDy=0;exitX=0.78;exitY=0.5;exitDx=0;exitDy=0;exitPerimeter=0;" parent="1" source="1tVvIyLN_Oq6n6Y1Ejoi-13" target="1tVvIyLN_Oq6n6Y1Ejoi-5" edge="1">
          <mxGeometry relative="1" as="geometry" />
        </mxCell>
        <mxCell id="1tVvIyLN_Oq6n6Y1Ejoi-15" style="edgeStyle=orthogonalEdgeStyle;rounded=0;orthogonalLoop=1;jettySize=auto;html=1;exitX=0.22;exitY=0.5;exitDx=0;exitDy=0;exitPerimeter=0;entryX=0.5;entryY=0;entryDx=0;entryDy=0;" parent="1" source="1tVvIyLN_Oq6n6Y1Ejoi-13" target="1tVvIyLN_Oq6n6Y1Ejoi-6" edge="1">
          <mxGeometry relative="1" as="geometry" />
        </mxCell>
        <mxCell id="1tVvIyLN_Oq6n6Y1Ejoi-16" style="edgeStyle=orthogonalEdgeStyle;rounded=0;orthogonalLoop=1;jettySize=auto;html=1;" parent="1" source="1tVvIyLN_Oq6n6Y1Ejoi-13" target="1tVvIyLN_Oq6n6Y1Ejoi-4" edge="1">
          <mxGeometry relative="1" as="geometry" />
        </mxCell>
        <mxCell id="1tVvIyLN_Oq6n6Y1Ejoi-13" value="" style="strokeWidth=2;html=1;shape=mxgraph.flowchart.extract_or_measurement;whiteSpace=wrap;rotation=-180;" parent="1" vertex="1">
          <mxGeometry x="202.5" y="490" width="95" height="60" as="geometry" />
        </mxCell>
      </root>
    </mxGraphModel>
  </diagram>
  <diagram id="27m2xF2kGGgiMcZkovhU" name="Página-3">
    <mxGraphModel dx="2261" dy="1942" grid="1" gridSize="10" guides="1" tooltips="1" connect="1" arrows="1" fold="1" page="1" pageScale="1" pageWidth="827" pageHeight="1169" math="0" shadow="0">
      <root>
        <mxCell id="0" />
        <mxCell id="1" parent="0" />
        <mxCell id="7u9dmE6EDA2MuaLq7RTn-11" style="edgeStyle=orthogonalEdgeStyle;rounded=0;orthogonalLoop=1;jettySize=auto;html=1;entryX=0.5;entryY=1;entryDx=0;entryDy=0;endArrow=none;endFill=0;" parent="1" source="NPK0KJoduwiFauGMzR2y-1" target="7u9dmE6EDA2MuaLq7RTn-10" edge="1">
          <mxGeometry relative="1" as="geometry">
            <Array as="points">
              <mxPoint x="700" y="80" />
            </Array>
          </mxGeometry>
        </mxCell>
        <mxCell id="7u9dmE6EDA2MuaLq7RTn-13" style="edgeStyle=orthogonalEdgeStyle;rounded=0;orthogonalLoop=1;jettySize=auto;html=1;entryX=0;entryY=0.5;entryDx=0;entryDy=0;exitX=1;exitY=0.75;exitDx=0;exitDy=0;" parent="1" source="NPK0KJoduwiFauGMzR2y-1" target="7u9dmE6EDA2MuaLq7RTn-12" edge="1">
          <mxGeometry relative="1" as="geometry">
            <Array as="points">
              <mxPoint x="700" y="90" />
              <mxPoint x="700" y="125" />
            </Array>
          </mxGeometry>
        </mxCell>
        <mxCell id="NPK0KJoduwiFauGMzR2y-1" value="Persona" style="rounded=1;arcSize=10;whiteSpace=wrap;html=1;align=center;fillColor=#dae8fc;strokeColor=#6c8ebf;" parent="1" vertex="1">
          <mxGeometry x="446.5" y="60" width="100" height="40" as="geometry" />
        </mxCell>
        <mxCell id="NPK0KJoduwiFauGMzR2y-3" value="DJ" style="rounded=1;arcSize=10;whiteSpace=wrap;html=1;align=center;fillColor=#dae8fc;strokeColor=#6c8ebf;" parent="1" vertex="1">
          <mxGeometry x="170" y="280" width="100" height="40" as="geometry" />
        </mxCell>
        <mxCell id="K-gbC7GCz-9JyqLvZnsC-24" style="edgeStyle=orthogonalEdgeStyle;rounded=0;orthogonalLoop=1;jettySize=auto;html=1;entryX=0.5;entryY=1;entryDx=0;entryDy=0;endArrow=none;endFill=0;" parent="1" source="NPK0KJoduwiFauGMzR2y-4" target="9xVgnGOzCeO1L2DF12D7-28" edge="1">
          <mxGeometry relative="1" as="geometry" />
        </mxCell>
        <mxCell id="NPK0KJoduwiFauGMzR2y-4" value="Contenido" style="rounded=1;arcSize=10;whiteSpace=wrap;html=1;align=center;fillColor=#dae8fc;strokeColor=#6c8ebf;" parent="1" vertex="1">
          <mxGeometry x="444" y="420" width="100" height="40" as="geometry" />
        </mxCell>
        <mxCell id="NPK0KJoduwiFauGMzR2y-5" value="Mezcla" style="rounded=1;arcSize=10;whiteSpace=wrap;html=1;align=center;fillColor=#dae8fc;strokeColor=#6c8ebf;" parent="1" vertex="1">
          <mxGeometry x="240" y="600" width="100" height="40" as="geometry" />
        </mxCell>
        <mxCell id="NPK0KJoduwiFauGMzR2y-8" value="Canción" style="rounded=1;arcSize=10;whiteSpace=wrap;html=1;align=center;fillColor=#dae8fc;strokeColor=#6c8ebf;" parent="1" vertex="1">
          <mxGeometry x="624" y="600" width="100" height="40" as="geometry" />
        </mxCell>
        <mxCell id="NPK0KJoduwiFauGMzR2y-9" value="Categoría" style="rounded=1;arcSize=10;whiteSpace=wrap;html=1;align=center;fillColor=#dae8fc;strokeColor=#6c8ebf;" parent="1" vertex="1">
          <mxGeometry x="240" y="830" width="100" height="40" as="geometry" />
        </mxCell>
        <mxCell id="NPK0KJoduwiFauGMzR2y-11" style="edgeStyle=orthogonalEdgeStyle;rounded=0;orthogonalLoop=1;jettySize=auto;html=1;exitX=0.78;exitY=0.5;exitDx=0;exitDy=0;exitPerimeter=0;" parent="1" source="NPK0KJoduwiFauGMzR2y-14" target="NPK0KJoduwiFauGMzR2y-3" edge="1">
          <mxGeometry relative="1" as="geometry" />
        </mxCell>
        <mxCell id="9xVgnGOzCeO1L2DF12D7-38" style="edgeStyle=orthogonalEdgeStyle;rounded=0;orthogonalLoop=1;jettySize=auto;html=1;entryX=0.5;entryY=0;entryDx=0;entryDy=0;exitX=0.22;exitY=0.5;exitDx=0;exitDy=0;exitPerimeter=0;" parent="1" source="NPK0KJoduwiFauGMzR2y-14" target="9xVgnGOzCeO1L2DF12D7-36" edge="1">
          <mxGeometry relative="1" as="geometry" />
        </mxCell>
        <mxCell id="NPK0KJoduwiFauGMzR2y-14" value="" style="strokeWidth=2;html=1;shape=mxgraph.flowchart.extract_or_measurement;whiteSpace=wrap;rotation=-180;fillColor=#fff2cc;strokeColor=#d6b656;" parent="1" vertex="1">
          <mxGeometry x="449" y="200" width="95" height="60" as="geometry" />
        </mxCell>
        <mxCell id="NPK0KJoduwiFauGMzR2y-15" style="edgeStyle=orthogonalEdgeStyle;rounded=0;orthogonalLoop=1;jettySize=auto;html=1;entryX=0.5;entryY=0;entryDx=0;entryDy=0;exitX=0.78;exitY=0.5;exitDx=0;exitDy=0;exitPerimeter=0;" parent="1" source="NPK0KJoduwiFauGMzR2y-18" target="NPK0KJoduwiFauGMzR2y-5" edge="1">
          <mxGeometry relative="1" as="geometry" />
        </mxCell>
        <mxCell id="NPK0KJoduwiFauGMzR2y-16" style="edgeStyle=orthogonalEdgeStyle;rounded=0;orthogonalLoop=1;jettySize=auto;html=1;exitX=0.22;exitY=0.5;exitDx=0;exitDy=0;exitPerimeter=0;entryX=0.5;entryY=0;entryDx=0;entryDy=0;" parent="1" source="NPK0KJoduwiFauGMzR2y-18" target="NPK0KJoduwiFauGMzR2y-8" edge="1">
          <mxGeometry relative="1" as="geometry" />
        </mxCell>
        <mxCell id="NPK0KJoduwiFauGMzR2y-17" style="edgeStyle=orthogonalEdgeStyle;rounded=0;orthogonalLoop=1;jettySize=auto;html=1;endArrow=none;endFill=0;" parent="1" source="NPK0KJoduwiFauGMzR2y-18" target="NPK0KJoduwiFauGMzR2y-4" edge="1">
          <mxGeometry relative="1" as="geometry" />
        </mxCell>
        <mxCell id="NPK0KJoduwiFauGMzR2y-18" value="" style="strokeWidth=2;html=1;shape=mxgraph.flowchart.extract_or_measurement;whiteSpace=wrap;rotation=-180;fillColor=#fff2cc;strokeColor=#d6b656;" parent="1" vertex="1">
          <mxGeometry x="446.5" y="510" width="95" height="60" as="geometry" />
        </mxCell>
        <mxCell id="NPK0KJoduwiFauGMzR2y-21" style="edgeStyle=orthogonalEdgeStyle;rounded=0;orthogonalLoop=1;jettySize=auto;html=1;entryX=0.5;entryY=1;entryDx=0;entryDy=0;endArrow=none;endFill=0;" parent="1" source="NPK0KJoduwiFauGMzR2y-19" target="NPK0KJoduwiFauGMzR2y-3" edge="1">
          <mxGeometry relative="1" as="geometry" />
        </mxCell>
        <mxCell id="NPK0KJoduwiFauGMzR2y-26" style="edgeStyle=orthogonalEdgeStyle;rounded=0;orthogonalLoop=1;jettySize=auto;html=1;exitX=0.5;exitY=1;exitDx=0;exitDy=0;entryX=0;entryY=0.5;entryDx=0;entryDy=0;" parent="1" source="NPK0KJoduwiFauGMzR2y-19" target="NPK0KJoduwiFauGMzR2y-5" edge="1">
          <mxGeometry relative="1" as="geometry" />
        </mxCell>
        <mxCell id="NPK0KJoduwiFauGMzR2y-19" value="Publica" style="shape=rhombus;perimeter=rhombusPerimeter;whiteSpace=wrap;html=1;align=center;fillColor=#fff2cc;strokeColor=#d6b656;" parent="1" vertex="1">
          <mxGeometry x="160" y="410" width="120" height="60" as="geometry" />
        </mxCell>
        <mxCell id="NPK0KJoduwiFauGMzR2y-24" style="edgeStyle=orthogonalEdgeStyle;rounded=0;orthogonalLoop=1;jettySize=auto;html=1;exitX=0.5;exitY=1;exitDx=0;exitDy=0;entryX=1;entryY=0.5;entryDx=0;entryDy=0;" parent="1" source="NPK0KJoduwiFauGMzR2y-22" target="NPK0KJoduwiFauGMzR2y-8" edge="1">
          <mxGeometry relative="1" as="geometry" />
        </mxCell>
        <mxCell id="NPK0KJoduwiFauGMzR2y-22" value="Hace" style="shape=rhombus;perimeter=rhombusPerimeter;whiteSpace=wrap;html=1;align=center;fillColor=#fff2cc;strokeColor=#d6b656;" parent="1" vertex="1">
          <mxGeometry x="724" y="400" width="120" height="60" as="geometry" />
        </mxCell>
        <mxCell id="NPK0KJoduwiFauGMzR2y-28" style="edgeStyle=orthogonalEdgeStyle;rounded=0;orthogonalLoop=1;jettySize=auto;html=1;entryX=0.5;entryY=1;entryDx=0;entryDy=0;" parent="1" source="NPK0KJoduwiFauGMzR2y-27" target="NPK0KJoduwiFauGMzR2y-5" edge="1">
          <mxGeometry relative="1" as="geometry" />
        </mxCell>
        <mxCell id="NPK0KJoduwiFauGMzR2y-29" style="edgeStyle=orthogonalEdgeStyle;rounded=0;orthogonalLoop=1;jettySize=auto;html=1;endArrow=none;endFill=0;" parent="1" source="NPK0KJoduwiFauGMzR2y-27" target="NPK0KJoduwiFauGMzR2y-9" edge="1">
          <mxGeometry relative="1" as="geometry" />
        </mxCell>
        <mxCell id="NPK0KJoduwiFauGMzR2y-27" value="Tiene" style="shape=rhombus;perimeter=rhombusPerimeter;whiteSpace=wrap;html=1;align=center;fillColor=#fff2cc;strokeColor=#d6b656;" parent="1" vertex="1">
          <mxGeometry x="230" y="710" width="120" height="60" as="geometry" />
        </mxCell>
        <mxCell id="NPK0KJoduwiFauGMzR2y-33" style="edgeStyle=orthogonalEdgeStyle;rounded=0;orthogonalLoop=1;jettySize=auto;html=1;" parent="1" source="NPK0KJoduwiFauGMzR2y-30" target="NPK0KJoduwiFauGMzR2y-31" edge="1">
          <mxGeometry relative="1" as="geometry" />
        </mxCell>
        <mxCell id="K-gbC7GCz-9JyqLvZnsC-26" style="edgeStyle=orthogonalEdgeStyle;rounded=0;orthogonalLoop=1;jettySize=auto;html=1;entryX=0;entryY=0.5;entryDx=0;entryDy=0;endArrow=classic;endFill=1;" parent="1" source="NPK0KJoduwiFauGMzR2y-30" target="NPK0KJoduwiFauGMzR2y-3" edge="1">
          <mxGeometry relative="1" as="geometry" />
        </mxCell>
        <mxCell id="NPK0KJoduwiFauGMzR2y-30" value="Participa" style="shape=rhombus;perimeter=rhombusPerimeter;whiteSpace=wrap;html=1;align=center;fillColor=#fff2cc;strokeColor=#d6b656;" parent="1" vertex="1">
          <mxGeometry y="270" width="120" height="60" as="geometry" />
        </mxCell>
        <mxCell id="NPK0KJoduwiFauGMzR2y-31" value="Evento" style="rounded=1;arcSize=10;whiteSpace=wrap;html=1;align=center;fillColor=#dae8fc;strokeColor=#6c8ebf;" parent="1" vertex="1">
          <mxGeometry x="10" y="105" width="100" height="40" as="geometry" />
        </mxCell>
        <mxCell id="NPK0KJoduwiFauGMzR2y-34" value="País" style="rounded=1;arcSize=10;whiteSpace=wrap;html=1;align=center;fillColor=#dae8fc;strokeColor=#6c8ebf;" parent="1" vertex="1">
          <mxGeometry x="-370" y="105" width="100" height="40" as="geometry" />
        </mxCell>
        <mxCell id="NPK0KJoduwiFauGMzR2y-36" style="edgeStyle=orthogonalEdgeStyle;rounded=0;orthogonalLoop=1;jettySize=auto;html=1;entryX=1;entryY=0.5;entryDx=0;entryDy=0;" parent="1" source="NPK0KJoduwiFauGMzR2y-35" target="NPK0KJoduwiFauGMzR2y-34" edge="1">
          <mxGeometry relative="1" as="geometry" />
        </mxCell>
        <mxCell id="NPK0KJoduwiFauGMzR2y-37" style="edgeStyle=orthogonalEdgeStyle;rounded=0;orthogonalLoop=1;jettySize=auto;html=1;exitX=1;exitY=0.5;exitDx=0;exitDy=0;entryX=0;entryY=0.5;entryDx=0;entryDy=0;" parent="1" source="NPK0KJoduwiFauGMzR2y-35" target="NPK0KJoduwiFauGMzR2y-31" edge="1">
          <mxGeometry relative="1" as="geometry" />
        </mxCell>
        <mxCell id="NPK0KJoduwiFauGMzR2y-35" value="Realiza" style="shape=rhombus;perimeter=rhombusPerimeter;whiteSpace=wrap;html=1;align=center;fillColor=#fff2cc;strokeColor=#d6b656;" parent="1" vertex="1">
          <mxGeometry x="-190" y="95" width="120" height="60" as="geometry" />
        </mxCell>
        <mxCell id="zs-8CgXBh1uDC-Gn3HaC-13" style="edgeStyle=orthogonalEdgeStyle;rounded=0;orthogonalLoop=1;jettySize=auto;html=1;endArrow=none;endFill=0;exitX=0;exitY=0.5;exitDx=0;exitDy=0;" parent="1" source="9xVgnGOzCeO1L2DF12D7-29" target="NPK0KJoduwiFauGMzR2y-9" edge="1">
          <mxGeometry relative="1" as="geometry">
            <mxPoint x="420" y="850" as="sourcePoint" />
          </mxGeometry>
        </mxCell>
        <mxCell id="9xVgnGOzCeO1L2DF12D7-4" style="edgeStyle=orthogonalEdgeStyle;rounded=0;orthogonalLoop=1;jettySize=auto;html=1;endArrow=none;endFill=0;" parent="1" source="9xVgnGOzCeO1L2DF12D7-1" target="NPK0KJoduwiFauGMzR2y-34" edge="1">
          <mxGeometry relative="1" as="geometry" />
        </mxCell>
        <mxCell id="9xVgnGOzCeO1L2DF12D7-1" value="Nombre" style="ellipse;whiteSpace=wrap;html=1;align=center;fillColor=#d5e8d4;strokeColor=#82b366;" parent="1" vertex="1">
          <mxGeometry x="-370" y="195" width="100" height="40" as="geometry" />
        </mxCell>
        <mxCell id="9xVgnGOzCeO1L2DF12D7-3" style="edgeStyle=orthogonalEdgeStyle;rounded=0;orthogonalLoop=1;jettySize=auto;html=1;entryX=0;entryY=0.5;entryDx=0;entryDy=0;endArrow=none;endFill=0;exitX=1;exitY=0.5;exitDx=0;exitDy=0;" parent="1" source="7u9dmE6EDA2MuaLq7RTn-9" target="NPK0KJoduwiFauGMzR2y-34" edge="1">
          <mxGeometry relative="1" as="geometry">
            <mxPoint x="-420" y="125" as="sourcePoint" />
          </mxGeometry>
        </mxCell>
        <mxCell id="9xVgnGOzCeO1L2DF12D7-7" style="edgeStyle=orthogonalEdgeStyle;rounded=0;orthogonalLoop=1;jettySize=auto;html=1;entryX=0.75;entryY=0;entryDx=0;entryDy=0;endArrow=none;endFill=0;exitX=0;exitY=0.5;exitDx=0;exitDy=0;" parent="1" source="7u9dmE6EDA2MuaLq7RTn-8" target="NPK0KJoduwiFauGMzR2y-31" edge="1">
          <mxGeometry relative="1" as="geometry">
            <mxPoint x="180" y="80" as="sourcePoint" />
          </mxGeometry>
        </mxCell>
        <mxCell id="9xVgnGOzCeO1L2DF12D7-8" style="edgeStyle=orthogonalEdgeStyle;rounded=0;orthogonalLoop=1;jettySize=auto;html=1;entryX=1;entryY=0.5;entryDx=0;entryDy=0;endArrow=none;endFill=0;exitX=0;exitY=0.5;exitDx=0;exitDy=0;" parent="1" source="7u9dmE6EDA2MuaLq7RTn-7" target="NPK0KJoduwiFauGMzR2y-31" edge="1">
          <mxGeometry relative="1" as="geometry">
            <mxPoint x="180" y="125" as="sourcePoint" />
          </mxGeometry>
        </mxCell>
        <mxCell id="9xVgnGOzCeO1L2DF12D7-10" style="edgeStyle=orthogonalEdgeStyle;rounded=0;orthogonalLoop=1;jettySize=auto;html=1;endArrow=none;endFill=0;entryX=0;entryY=0.25;entryDx=0;entryDy=0;exitX=0.5;exitY=1;exitDx=0;exitDy=0;" parent="1" source="9xVgnGOzCeO1L2DF12D7-9" target="NPK0KJoduwiFauGMzR2y-1" edge="1">
          <mxGeometry relative="1" as="geometry" />
        </mxCell>
        <mxCell id="9xVgnGOzCeO1L2DF12D7-9" value="Nombre" style="ellipse;whiteSpace=wrap;html=1;align=center;fillColor=#d5e8d4;strokeColor=#82b366;" parent="1" vertex="1">
          <mxGeometry x="330" y="-30" width="100" height="40" as="geometry" />
        </mxCell>
        <mxCell id="9xVgnGOzCeO1L2DF12D7-12" style="edgeStyle=orthogonalEdgeStyle;rounded=0;orthogonalLoop=1;jettySize=auto;html=1;entryX=1;entryY=0.25;entryDx=0;entryDy=0;endArrow=none;endFill=0;exitX=0.5;exitY=1;exitDx=0;exitDy=0;" parent="1" source="9xVgnGOzCeO1L2DF12D7-11" target="NPK0KJoduwiFauGMzR2y-1" edge="1">
          <mxGeometry relative="1" as="geometry">
            <Array as="points">
              <mxPoint x="610" y="70" />
            </Array>
          </mxGeometry>
        </mxCell>
        <mxCell id="9xVgnGOzCeO1L2DF12D7-11" value="Apellido" style="ellipse;whiteSpace=wrap;html=1;align=center;fillColor=#d5e8d4;strokeColor=#82b366;" parent="1" vertex="1">
          <mxGeometry x="560" y="-30" width="100" height="40" as="geometry" />
        </mxCell>
        <mxCell id="K-gbC7GCz-9JyqLvZnsC-25" style="edgeStyle=orthogonalEdgeStyle;rounded=0;orthogonalLoop=1;jettySize=auto;html=1;entryX=0.75;entryY=0;entryDx=0;entryDy=0;endArrow=none;endFill=0;" parent="1" source="9xVgnGOzCeO1L2DF12D7-13" target="NPK0KJoduwiFauGMzR2y-4" edge="1">
          <mxGeometry relative="1" as="geometry" />
        </mxCell>
        <mxCell id="9xVgnGOzCeO1L2DF12D7-13" value="Género" style="ellipse;whiteSpace=wrap;html=1;align=center;fillColor=#d5e8d4;strokeColor=#82b366;" parent="1" vertex="1">
          <mxGeometry x="570" y="370" width="100" height="40" as="geometry" />
        </mxCell>
        <mxCell id="K-gbC7GCz-9JyqLvZnsC-23" style="edgeStyle=orthogonalEdgeStyle;rounded=0;orthogonalLoop=1;jettySize=auto;html=1;entryX=0;entryY=0.5;entryDx=0;entryDy=0;endArrow=none;endFill=0;" parent="1" source="9xVgnGOzCeO1L2DF12D7-14" target="NPK0KJoduwiFauGMzR2y-4" edge="1">
          <mxGeometry relative="1" as="geometry" />
        </mxCell>
        <mxCell id="9xVgnGOzCeO1L2DF12D7-14" value="Nombre" style="ellipse;whiteSpace=wrap;html=1;align=center;fillColor=#d5e8d4;strokeColor=#82b366;" parent="1" vertex="1">
          <mxGeometry x="349" y="370" width="100" height="40" as="geometry" />
        </mxCell>
        <mxCell id="9xVgnGOzCeO1L2DF12D7-20" style="edgeStyle=orthogonalEdgeStyle;rounded=0;orthogonalLoop=1;jettySize=auto;html=1;entryX=1;entryY=0.5;entryDx=0;entryDy=0;endArrow=none;endFill=0;" parent="1" source="9xVgnGOzCeO1L2DF12D7-15" target="NPK0KJoduwiFauGMzR2y-4" edge="1">
          <mxGeometry relative="1" as="geometry" />
        </mxCell>
        <mxCell id="9xVgnGOzCeO1L2DF12D7-15" value="Duración" style="ellipse;whiteSpace=wrap;html=1;align=center;fillColor=#d5e8d4;strokeColor=#82b366;" parent="1" vertex="1">
          <mxGeometry x="570" y="420" width="100" height="40" as="geometry" />
        </mxCell>
        <mxCell id="9xVgnGOzCeO1L2DF12D7-24" style="edgeStyle=orthogonalEdgeStyle;rounded=0;orthogonalLoop=1;jettySize=auto;html=1;endArrow=none;endFill=0;" parent="1" source="9xVgnGOzCeO1L2DF12D7-23" target="NPK0KJoduwiFauGMzR2y-9" edge="1">
          <mxGeometry relative="1" as="geometry" />
        </mxCell>
        <mxCell id="9xVgnGOzCeO1L2DF12D7-23" value="Puntaje" style="ellipse;whiteSpace=wrap;html=1;align=center;fillColor=#d5e8d4;strokeColor=#82b366;" parent="1" vertex="1">
          <mxGeometry x="240" y="920" width="100" height="40" as="geometry" />
        </mxCell>
        <mxCell id="K-gbC7GCz-9JyqLvZnsC-34" style="edgeStyle=orthogonalEdgeStyle;rounded=0;orthogonalLoop=1;jettySize=auto;html=1;entryX=0.5;entryY=0;entryDx=0;entryDy=0;endArrow=none;endFill=0;" parent="1" source="9xVgnGOzCeO1L2DF12D7-26" target="NPK0KJoduwiFauGMzR2y-1" edge="1">
          <mxGeometry relative="1" as="geometry" />
        </mxCell>
        <mxCell id="9xVgnGOzCeO1L2DF12D7-26" value="ID" style="ellipse;whiteSpace=wrap;html=1;align=center;fontStyle=4;fillColor=#e1d5e7;strokeColor=#9673a6;" parent="1" vertex="1">
          <mxGeometry x="446.5" y="-30" width="100" height="40" as="geometry" />
        </mxCell>
        <mxCell id="9xVgnGOzCeO1L2DF12D7-28" value="ID" style="ellipse;whiteSpace=wrap;html=1;align=center;fontStyle=4;fillColor=#e1d5e7;strokeColor=#9673a6;" parent="1" vertex="1">
          <mxGeometry x="444" y="330" width="100" height="40" as="geometry" />
        </mxCell>
        <mxCell id="9xVgnGOzCeO1L2DF12D7-29" value="Nombre" style="ellipse;whiteSpace=wrap;html=1;align=center;fontStyle=4;fillColor=#e1d5e7;strokeColor=#9673a6;" parent="1" vertex="1">
          <mxGeometry x="390" y="830" width="100" height="40" as="geometry" />
        </mxCell>
        <mxCell id="9xVgnGOzCeO1L2DF12D7-31" style="edgeStyle=orthogonalEdgeStyle;rounded=0;orthogonalLoop=1;jettySize=auto;html=1;entryX=0.5;entryY=1;entryDx=0;entryDy=0;endArrow=none;endFill=0;" parent="1" source="9xVgnGOzCeO1L2DF12D7-30" target="NPK0KJoduwiFauGMzR2y-8" edge="1">
          <mxGeometry relative="1" as="geometry" />
        </mxCell>
        <mxCell id="9xVgnGOzCeO1L2DF12D7-30" value="Tipo" style="ellipse;whiteSpace=wrap;html=1;align=center;fillColor=#d5e8d4;strokeColor=#82b366;" parent="1" vertex="1">
          <mxGeometry x="624" y="680" width="100" height="40" as="geometry" />
        </mxCell>
        <mxCell id="9xVgnGOzCeO1L2DF12D7-39" style="edgeStyle=orthogonalEdgeStyle;rounded=0;orthogonalLoop=1;jettySize=auto;html=1;entryX=0.5;entryY=0;entryDx=0;entryDy=0;endArrow=none;endFill=0;" parent="1" source="9xVgnGOzCeO1L2DF12D7-36" target="NPK0KJoduwiFauGMzR2y-22" edge="1">
          <mxGeometry relative="1" as="geometry" />
        </mxCell>
        <mxCell id="9xVgnGOzCeO1L2DF12D7-36" value="Productor" style="rounded=1;arcSize=10;whiteSpace=wrap;html=1;align=center;fillColor=#dae8fc;strokeColor=#6c8ebf;" parent="1" vertex="1">
          <mxGeometry x="734" y="280" width="100" height="40" as="geometry" />
        </mxCell>
        <mxCell id="9xVgnGOzCeO1L2DF12D7-50" style="edgeStyle=orthogonalEdgeStyle;rounded=0;orthogonalLoop=1;jettySize=auto;html=1;entryX=0.75;entryY=1;entryDx=0;entryDy=0;endArrow=none;endFill=0;exitX=0;exitY=0.5;exitDx=0;exitDy=0;" parent="1" source="9xVgnGOzCeO1L2DF12D7-44" target="NPK0KJoduwiFauGMzR2y-31" edge="1">
          <mxGeometry relative="1" as="geometry">
            <mxPoint x="140" y="175" as="sourcePoint" />
          </mxGeometry>
        </mxCell>
        <mxCell id="9xVgnGOzCeO1L2DF12D7-44" value="Nombre" style="ellipse;whiteSpace=wrap;html=1;align=center;fontStyle=4;fillColor=#e1d5e7;strokeColor=#9673a6;" parent="1" vertex="1">
          <mxGeometry x="180" y="155" width="100" height="40" as="geometry" />
        </mxCell>
        <mxCell id="9xVgnGOzCeO1L2DF12D7-48" style="edgeStyle=orthogonalEdgeStyle;rounded=0;orthogonalLoop=1;jettySize=auto;html=1;exitX=0.5;exitY=1;exitDx=0;exitDy=0;entryX=0.5;entryY=0;entryDx=0;entryDy=0;" parent="1" source="9xVgnGOzCeO1L2DF12D7-46" target="NPK0KJoduwiFauGMzR2y-31" edge="1">
          <mxGeometry relative="1" as="geometry" />
        </mxCell>
        <mxCell id="9xVgnGOzCeO1L2DF12D7-49" style="edgeStyle=orthogonalEdgeStyle;rounded=0;orthogonalLoop=1;jettySize=auto;html=1;" parent="1" source="9xVgnGOzCeO1L2DF12D7-46" target="9xVgnGOzCeO1L2DF12D7-47" edge="1">
          <mxGeometry relative="1" as="geometry" />
        </mxCell>
        <mxCell id="9xVgnGOzCeO1L2DF12D7-46" value="Tiene" style="shape=rhombus;perimeter=rhombusPerimeter;whiteSpace=wrap;html=1;align=center;fillColor=#fff2cc;strokeColor=#d6b656;" parent="1" vertex="1">
          <mxGeometry y="-40" width="120" height="60" as="geometry" />
        </mxCell>
        <mxCell id="K-gbC7GCz-9JyqLvZnsC-16" style="edgeStyle=orthogonalEdgeStyle;rounded=0;orthogonalLoop=1;jettySize=auto;html=1;entryX=0;entryY=0.5;entryDx=0;entryDy=0;endArrow=none;endFill=0;" parent="1" source="9xVgnGOzCeO1L2DF12D7-47" target="K-gbC7GCz-9JyqLvZnsC-1" edge="1">
          <mxGeometry relative="1" as="geometry" />
        </mxCell>
        <mxCell id="9xVgnGOzCeO1L2DF12D7-47" value="Equipo" style="rounded=1;arcSize=10;whiteSpace=wrap;html=1;align=center;fillColor=#dae8fc;strokeColor=#6c8ebf;" parent="1" vertex="1">
          <mxGeometry x="10" y="-160" width="100" height="40" as="geometry" />
        </mxCell>
        <mxCell id="K-gbC7GCz-9JyqLvZnsC-1" value="Código" style="ellipse;whiteSpace=wrap;html=1;align=center;fontStyle=4;fillColor=#e1d5e7;strokeColor=#9673a6;" parent="1" vertex="1">
          <mxGeometry x="162.5" y="-160" width="100" height="40" as="geometry" />
        </mxCell>
        <mxCell id="K-gbC7GCz-9JyqLvZnsC-15" style="edgeStyle=orthogonalEdgeStyle;rounded=0;orthogonalLoop=1;jettySize=auto;html=1;entryX=0.5;entryY=0;entryDx=0;entryDy=0;endArrow=none;endFill=0;exitX=0.5;exitY=1;exitDx=0;exitDy=0;" parent="1" source="VriMw-R362dzHCeGCIud-1" target="9xVgnGOzCeO1L2DF12D7-47" edge="1">
          <mxGeometry relative="1" as="geometry">
            <mxPoint x="60" y="-210" as="sourcePoint" />
          </mxGeometry>
        </mxCell>
        <mxCell id="K-gbC7GCz-9JyqLvZnsC-5" value="Iluminación" style="ellipse;whiteSpace=wrap;html=1;align=center;fillColor=#d5e8d4;strokeColor=#82b366;" parent="1" vertex="1">
          <mxGeometry x="70" y="-340" width="100" height="40" as="geometry" />
        </mxCell>
        <mxCell id="K-gbC7GCz-9JyqLvZnsC-6" value="Audio" style="ellipse;whiteSpace=wrap;html=1;align=center;fillColor=#d5e8d4;strokeColor=#82b366;" parent="1" vertex="1">
          <mxGeometry x="-60" y="-340" width="100" height="40" as="geometry" />
        </mxCell>
        <mxCell id="K-gbC7GCz-9JyqLvZnsC-7" value="Foco" style="ellipse;whiteSpace=wrap;html=1;align=center;fillColor=#d5e8d4;strokeColor=#82b366;" parent="1" vertex="1">
          <mxGeometry x="70" y="-420" width="100" height="40" as="geometry" />
        </mxCell>
        <mxCell id="K-gbC7GCz-9JyqLvZnsC-8" value="Altavoz" style="ellipse;whiteSpace=wrap;html=1;align=center;fillColor=#d5e8d4;strokeColor=#82b366;" parent="1" vertex="1">
          <mxGeometry x="-60" y="-420" width="100" height="40" as="geometry" />
        </mxCell>
        <mxCell id="K-gbC7GCz-9JyqLvZnsC-9" value="Micrófono" style="ellipse;whiteSpace=wrap;html=1;align=center;fillColor=#d5e8d4;strokeColor=#82b366;" parent="1" vertex="1">
          <mxGeometry x="-190" y="-420" width="100" height="40" as="geometry" />
        </mxCell>
        <mxCell id="K-gbC7GCz-9JyqLvZnsC-10" value="" style="endArrow=none;html=1;rounded=0;exitX=0.5;exitY=1;exitDx=0;exitDy=0;entryX=0;entryY=0.5;entryDx=0;entryDy=0;endFill=0;" parent="1" source="K-gbC7GCz-9JyqLvZnsC-9" target="K-gbC7GCz-9JyqLvZnsC-6" edge="1">
          <mxGeometry width="50" height="50" relative="1" as="geometry">
            <mxPoint x="-100" y="-260" as="sourcePoint" />
            <mxPoint x="-40" y="-310" as="targetPoint" />
            <Array as="points">
              <mxPoint x="-140" y="-320" />
            </Array>
          </mxGeometry>
        </mxCell>
        <mxCell id="K-gbC7GCz-9JyqLvZnsC-11" value="" style="endArrow=none;html=1;rounded=0;exitX=0.5;exitY=1;exitDx=0;exitDy=0;entryX=0.5;entryY=0;entryDx=0;entryDy=0;endFill=0;" parent="1" source="K-gbC7GCz-9JyqLvZnsC-8" target="K-gbC7GCz-9JyqLvZnsC-6" edge="1">
          <mxGeometry width="50" height="50" relative="1" as="geometry">
            <mxPoint x="-70" y="-360" as="sourcePoint" />
            <mxPoint x="-23" y="-306" as="targetPoint" />
          </mxGeometry>
        </mxCell>
        <mxCell id="K-gbC7GCz-9JyqLvZnsC-12" value="" style="endArrow=none;html=1;rounded=0;exitX=0.5;exitY=1;exitDx=0;exitDy=0;entryX=1;entryY=0;entryDx=0;entryDy=0;endFill=0;" parent="1" source="K-gbC7GCz-9JyqLvZnsC-5" edge="1">
          <mxGeometry width="50" height="50" relative="1" as="geometry">
            <mxPoint x="50" y="-360" as="sourcePoint" />
            <mxPoint x="95.35533905932743" y="-244.14213562373106" as="targetPoint" />
          </mxGeometry>
        </mxCell>
        <mxCell id="K-gbC7GCz-9JyqLvZnsC-13" value="" style="endArrow=none;html=1;rounded=0;exitX=0.5;exitY=1;exitDx=0;exitDy=0;entryX=0.5;entryY=0;entryDx=0;entryDy=0;endFill=0;" parent="1" source="K-gbC7GCz-9JyqLvZnsC-7" target="K-gbC7GCz-9JyqLvZnsC-5" edge="1">
          <mxGeometry width="50" height="50" relative="1" as="geometry">
            <mxPoint x="70" y="-370" as="sourcePoint" />
            <mxPoint x="20" y="-320" as="targetPoint" />
            <Array as="points" />
          </mxGeometry>
        </mxCell>
        <mxCell id="K-gbC7GCz-9JyqLvZnsC-14" value="" style="endArrow=none;html=1;rounded=0;exitX=0.5;exitY=1;exitDx=0;exitDy=0;entryX=0;entryY=0;entryDx=0;entryDy=0;endFill=0;" parent="1" source="K-gbC7GCz-9JyqLvZnsC-6" edge="1">
          <mxGeometry width="50" height="50" relative="1" as="geometry">
            <mxPoint x="120" y="-270" as="sourcePoint" />
            <mxPoint x="24.644660940672566" y="-244.14213562373106" as="targetPoint" />
          </mxGeometry>
        </mxCell>
        <mxCell id="K-gbC7GCz-9JyqLvZnsC-18" value="N:M" style="text;html=1;align=center;verticalAlign=middle;resizable=0;points=[];autosize=1;strokeColor=none;fillColor=none;" parent="1" vertex="1">
          <mxGeometry x="-160" y="65" width="50" height="30" as="geometry" />
        </mxCell>
        <mxCell id="K-gbC7GCz-9JyqLvZnsC-19" value="N:M" style="text;html=1;align=center;verticalAlign=middle;resizable=0;points=[];autosize=1;strokeColor=none;fillColor=none;" parent="1" vertex="1">
          <mxGeometry x="120" y="-20" width="50" height="30" as="geometry" />
        </mxCell>
        <mxCell id="K-gbC7GCz-9JyqLvZnsC-20" value="N:M" style="text;html=1;align=center;verticalAlign=middle;resizable=0;points=[];autosize=1;strokeColor=none;fillColor=none;" parent="1" vertex="1">
          <mxGeometry x="35" y="325" width="50" height="30" as="geometry" />
        </mxCell>
        <mxCell id="K-gbC7GCz-9JyqLvZnsC-21" value="1:N" style="text;html=1;align=center;verticalAlign=middle;resizable=0;points=[];autosize=1;strokeColor=none;fillColor=none;" parent="1" vertex="1">
          <mxGeometry x="120" y="420" width="40" height="30" as="geometry" />
        </mxCell>
        <mxCell id="K-gbC7GCz-9JyqLvZnsC-22" value="1:N" style="text;html=1;align=center;verticalAlign=middle;resizable=0;points=[];autosize=1;strokeColor=none;fillColor=none;" parent="1" vertex="1">
          <mxGeometry x="190" y="725" width="40" height="30" as="geometry" />
        </mxCell>
        <mxCell id="K-gbC7GCz-9JyqLvZnsC-27" value="1:1" style="text;html=1;align=center;verticalAlign=middle;resizable=0;points=[];autosize=1;strokeColor=none;fillColor=none;" parent="1" vertex="1">
          <mxGeometry x="506.5" y="160" width="40" height="30" as="geometry" />
        </mxCell>
        <mxCell id="K-gbC7GCz-9JyqLvZnsC-28" value="0:1" style="text;html=1;align=center;verticalAlign=middle;resizable=0;points=[];autosize=1;strokeColor=none;fillColor=none;" parent="1" vertex="1">
          <mxGeometry x="794" y="235" width="40" height="30" as="geometry" />
        </mxCell>
        <mxCell id="K-gbC7GCz-9JyqLvZnsC-29" value="0:1" style="text;html=1;align=center;verticalAlign=middle;resizable=0;points=[];autosize=1;strokeColor=none;fillColor=none;" parent="1" vertex="1">
          <mxGeometry x="230" y="235" width="40" height="30" as="geometry" />
        </mxCell>
        <mxCell id="K-gbC7GCz-9JyqLvZnsC-30" value="1:N" style="text;html=1;align=center;verticalAlign=middle;resizable=0;points=[];autosize=1;strokeColor=none;fillColor=none;" parent="1" vertex="1">
          <mxGeometry x="850" y="410" width="40" height="30" as="geometry" />
        </mxCell>
        <mxCell id="K-gbC7GCz-9JyqLvZnsC-31" value="0:1" style="text;html=1;align=center;verticalAlign=middle;resizable=0;points=[];autosize=1;strokeColor=none;fillColor=none;" parent="1" vertex="1">
          <mxGeometry x="300" y="555" width="40" height="30" as="geometry" />
        </mxCell>
        <mxCell id="K-gbC7GCz-9JyqLvZnsC-32" value="0:1" style="text;html=1;align=center;verticalAlign=middle;resizable=0;points=[];autosize=1;strokeColor=none;fillColor=none;" parent="1" vertex="1">
          <mxGeometry x="680" y="550" width="40" height="30" as="geometry" />
        </mxCell>
        <mxCell id="K-gbC7GCz-9JyqLvZnsC-33" value="1:1" style="text;html=1;align=center;verticalAlign=middle;resizable=0;points=[];autosize=1;strokeColor=none;fillColor=none;" parent="1" vertex="1">
          <mxGeometry x="501.5" y="470" width="40" height="30" as="geometry" />
        </mxCell>
        <mxCell id="7u9dmE6EDA2MuaLq7RTn-3" value="1:1" style="text;html=1;align=center;verticalAlign=middle;resizable=0;points=[];autosize=1;strokeColor=none;fillColor=none;" parent="1" vertex="1">
          <mxGeometry x="734" y="235" width="40" height="30" as="geometry" />
        </mxCell>
        <mxCell id="7u9dmE6EDA2MuaLq7RTn-4" value="1:1" style="text;html=1;align=center;verticalAlign=middle;resizable=0;points=[];autosize=1;strokeColor=none;fillColor=none;" parent="1" vertex="1">
          <mxGeometry x="170" y="235" width="40" height="30" as="geometry" />
        </mxCell>
        <mxCell id="7u9dmE6EDA2MuaLq7RTn-6" style="edgeStyle=orthogonalEdgeStyle;rounded=0;orthogonalLoop=1;jettySize=auto;html=1;entryX=0.5;entryY=1;entryDx=0;entryDy=0;endArrow=none;endFill=0;" parent="1" source="7u9dmE6EDA2MuaLq7RTn-5" target="NPK0KJoduwiFauGMzR2y-1" edge="1">
          <mxGeometry relative="1" as="geometry" />
        </mxCell>
        <mxCell id="7u9dmE6EDA2MuaLq7RTn-5" value="" style="ellipse;whiteSpace=wrap;html=1;fillColor=#fff2cc;strokeColor=#d6b656;" parent="1" vertex="1">
          <mxGeometry x="482" y="170" width="29" height="20" as="geometry" />
        </mxCell>
        <mxCell id="7u9dmE6EDA2MuaLq7RTn-7" value="Lugar" style="ellipse;shape=doubleEllipse;margin=3;whiteSpace=wrap;html=1;align=center;fillColor=#d5e8d4;strokeColor=#82b366;" parent="1" vertex="1">
          <mxGeometry x="180" y="105" width="100" height="40" as="geometry" />
        </mxCell>
        <mxCell id="7u9dmE6EDA2MuaLq7RTn-8" value="Fecha" style="ellipse;shape=doubleEllipse;margin=3;whiteSpace=wrap;html=1;align=center;fillColor=#d5e8d4;strokeColor=#82b366;" parent="1" vertex="1">
          <mxGeometry x="180" y="60" width="100" height="40" as="geometry" />
        </mxCell>
        <mxCell id="7u9dmE6EDA2MuaLq7RTn-9" value="Capital" style="ellipse;whiteSpace=wrap;html=1;align=center;fontStyle=4;fillColor=#e1d5e7;strokeColor=#9673a6;" parent="1" vertex="1">
          <mxGeometry x="-530" y="105" width="100" height="40" as="geometry" />
        </mxCell>
        <mxCell id="7u9dmE6EDA2MuaLq7RTn-10" value="Género" style="ellipse;whiteSpace=wrap;html=1;align=center;fillColor=#d5e8d4;strokeColor=#82b366;" parent="1" vertex="1">
          <mxGeometry x="650" y="10" width="100" height="40" as="geometry" />
        </mxCell>
        <mxCell id="7u9dmE6EDA2MuaLq7RTn-12" value="Edad" style="ellipse;whiteSpace=wrap;html=1;align=center;fillColor=#d5e8d4;strokeColor=#82b366;" parent="1" vertex="1">
          <mxGeometry x="650" y="105" width="100" height="40" as="geometry" />
        </mxCell>
        <mxCell id="VriMw-R362dzHCeGCIud-1" value="Tipo" style="ellipse;whiteSpace=wrap;html=1;align=center;dashed=1;fillColor=#d5e8d4;strokeColor=#82b366;" vertex="1" parent="1">
          <mxGeometry x="10" y="-260" width="100" height="40" as="geometry" />
        </mxCell>
      </root>
    </mxGraphModel>
  </diagram>
  <diagram id="9RXCzbc4GFTtNykENElL" name="MR">
    <mxGraphModel dx="1434" dy="773" grid="1" gridSize="10" guides="1" tooltips="1" connect="1" arrows="1" fold="1" page="1" pageScale="1" pageWidth="827" pageHeight="1169" math="0" shadow="0">
      <root>
        <mxCell id="0" />
        <mxCell id="1" parent="0" />
        <mxCell id="6tkGmqvIrqBybWQNjJxg-5" value="Persona" style="shape=table;startSize=30;container=1;collapsible=1;childLayout=tableLayout;fixedRows=1;rowLines=0;fontStyle=1;align=center;resizeLast=1;html=1;fillColor=#dae8fc;strokeColor=#6c8ebf;" parent="1" vertex="1">
          <mxGeometry x="170" y="290" width="180" height="180" as="geometry" />
        </mxCell>
        <mxCell id="6tkGmqvIrqBybWQNjJxg-6" value="" style="shape=tableRow;horizontal=0;startSize=0;swimlaneHead=0;swimlaneBody=0;fillColor=none;collapsible=0;dropTarget=0;points=[[0,0.5],[1,0.5]];portConstraint=eastwest;top=0;left=0;right=0;bottom=1;" parent="6tkGmqvIrqBybWQNjJxg-5" vertex="1">
          <mxGeometry y="30" width="180" height="30" as="geometry" />
        </mxCell>
        <mxCell id="6tkGmqvIrqBybWQNjJxg-7" value="PK" style="shape=partialRectangle;connectable=0;fillColor=none;top=0;left=0;bottom=0;right=0;fontStyle=1;overflow=hidden;whiteSpace=wrap;html=1;" parent="6tkGmqvIrqBybWQNjJxg-6" vertex="1">
          <mxGeometry width="30" height="30" as="geometry">
            <mxRectangle width="30" height="30" as="alternateBounds" />
          </mxGeometry>
        </mxCell>
        <mxCell id="6tkGmqvIrqBybWQNjJxg-8" value="ID" style="shape=partialRectangle;connectable=0;fillColor=none;top=0;left=0;bottom=0;right=0;align=left;spacingLeft=6;fontStyle=5;overflow=hidden;whiteSpace=wrap;html=1;" parent="6tkGmqvIrqBybWQNjJxg-6" vertex="1">
          <mxGeometry x="30" width="150" height="30" as="geometry">
            <mxRectangle width="150" height="30" as="alternateBounds" />
          </mxGeometry>
        </mxCell>
        <mxCell id="6tkGmqvIrqBybWQNjJxg-9" value="" style="shape=tableRow;horizontal=0;startSize=0;swimlaneHead=0;swimlaneBody=0;fillColor=none;collapsible=0;dropTarget=0;points=[[0,0.5],[1,0.5]];portConstraint=eastwest;top=0;left=0;right=0;bottom=0;" parent="6tkGmqvIrqBybWQNjJxg-5" vertex="1">
          <mxGeometry y="60" width="180" height="30" as="geometry" />
        </mxCell>
        <mxCell id="6tkGmqvIrqBybWQNjJxg-10" value="" style="shape=partialRectangle;connectable=0;fillColor=none;top=0;left=0;bottom=0;right=0;editable=1;overflow=hidden;whiteSpace=wrap;html=1;" parent="6tkGmqvIrqBybWQNjJxg-9" vertex="1">
          <mxGeometry width="30" height="30" as="geometry">
            <mxRectangle width="30" height="30" as="alternateBounds" />
          </mxGeometry>
        </mxCell>
        <mxCell id="6tkGmqvIrqBybWQNjJxg-11" value="Nombre" style="shape=partialRectangle;connectable=0;fillColor=none;top=0;left=0;bottom=0;right=0;align=left;spacingLeft=6;overflow=hidden;whiteSpace=wrap;html=1;" parent="6tkGmqvIrqBybWQNjJxg-9" vertex="1">
          <mxGeometry x="30" width="150" height="30" as="geometry">
            <mxRectangle width="150" height="30" as="alternateBounds" />
          </mxGeometry>
        </mxCell>
        <mxCell id="6tkGmqvIrqBybWQNjJxg-12" value="" style="shape=tableRow;horizontal=0;startSize=0;swimlaneHead=0;swimlaneBody=0;fillColor=none;collapsible=0;dropTarget=0;points=[[0,0.5],[1,0.5]];portConstraint=eastwest;top=0;left=0;right=0;bottom=0;" parent="6tkGmqvIrqBybWQNjJxg-5" vertex="1">
          <mxGeometry y="90" width="180" height="30" as="geometry" />
        </mxCell>
        <mxCell id="6tkGmqvIrqBybWQNjJxg-13" value="" style="shape=partialRectangle;connectable=0;fillColor=none;top=0;left=0;bottom=0;right=0;editable=1;overflow=hidden;whiteSpace=wrap;html=1;" parent="6tkGmqvIrqBybWQNjJxg-12" vertex="1">
          <mxGeometry width="30" height="30" as="geometry">
            <mxRectangle width="30" height="30" as="alternateBounds" />
          </mxGeometry>
        </mxCell>
        <mxCell id="6tkGmqvIrqBybWQNjJxg-14" value="Apellido" style="shape=partialRectangle;connectable=0;fillColor=none;top=0;left=0;bottom=0;right=0;align=left;spacingLeft=6;overflow=hidden;whiteSpace=wrap;html=1;" parent="6tkGmqvIrqBybWQNjJxg-12" vertex="1">
          <mxGeometry x="30" width="150" height="30" as="geometry">
            <mxRectangle width="150" height="30" as="alternateBounds" />
          </mxGeometry>
        </mxCell>
        <mxCell id="6tkGmqvIrqBybWQNjJxg-15" value="" style="shape=tableRow;horizontal=0;startSize=0;swimlaneHead=0;swimlaneBody=0;fillColor=none;collapsible=0;dropTarget=0;points=[[0,0.5],[1,0.5]];portConstraint=eastwest;top=0;left=0;right=0;bottom=0;" parent="6tkGmqvIrqBybWQNjJxg-5" vertex="1">
          <mxGeometry y="120" width="180" height="30" as="geometry" />
        </mxCell>
        <mxCell id="6tkGmqvIrqBybWQNjJxg-16" value="" style="shape=partialRectangle;connectable=0;fillColor=none;top=0;left=0;bottom=0;right=0;editable=1;overflow=hidden;whiteSpace=wrap;html=1;" parent="6tkGmqvIrqBybWQNjJxg-15" vertex="1">
          <mxGeometry width="30" height="30" as="geometry">
            <mxRectangle width="30" height="30" as="alternateBounds" />
          </mxGeometry>
        </mxCell>
        <mxCell id="6tkGmqvIrqBybWQNjJxg-17" value="Género" style="shape=partialRectangle;connectable=0;fillColor=none;top=0;left=0;bottom=0;right=0;align=left;spacingLeft=6;overflow=hidden;whiteSpace=wrap;html=1;" parent="6tkGmqvIrqBybWQNjJxg-15" vertex="1">
          <mxGeometry x="30" width="150" height="30" as="geometry">
            <mxRectangle width="150" height="30" as="alternateBounds" />
          </mxGeometry>
        </mxCell>
        <mxCell id="6tkGmqvIrqBybWQNjJxg-18" style="shape=tableRow;horizontal=0;startSize=0;swimlaneHead=0;swimlaneBody=0;fillColor=none;collapsible=0;dropTarget=0;points=[[0,0.5],[1,0.5]];portConstraint=eastwest;top=0;left=0;right=0;bottom=0;" parent="6tkGmqvIrqBybWQNjJxg-5" vertex="1">
          <mxGeometry y="150" width="180" height="30" as="geometry" />
        </mxCell>
        <mxCell id="6tkGmqvIrqBybWQNjJxg-19" style="shape=partialRectangle;connectable=0;fillColor=none;top=0;left=0;bottom=0;right=0;editable=1;overflow=hidden;whiteSpace=wrap;html=1;" parent="6tkGmqvIrqBybWQNjJxg-18" vertex="1">
          <mxGeometry width="30" height="30" as="geometry">
            <mxRectangle width="30" height="30" as="alternateBounds" />
          </mxGeometry>
        </mxCell>
        <mxCell id="6tkGmqvIrqBybWQNjJxg-20" value="Edad" style="shape=partialRectangle;connectable=0;fillColor=none;top=0;left=0;bottom=0;right=0;align=left;spacingLeft=6;overflow=hidden;whiteSpace=wrap;html=1;" parent="6tkGmqvIrqBybWQNjJxg-18" vertex="1">
          <mxGeometry x="30" width="150" height="30" as="geometry">
            <mxRectangle width="150" height="30" as="alternateBounds" />
          </mxGeometry>
        </mxCell>
        <mxCell id="FqCtr0j4OcyA-703P5As-1" value="Dj" style="shape=table;startSize=30;container=1;collapsible=1;childLayout=tableLayout;fixedRows=1;rowLines=0;fontStyle=1;align=center;resizeLast=1;html=1;fillColor=#dae8fc;strokeColor=#6c8ebf;" parent="1" vertex="1">
          <mxGeometry x="40" y="560" width="180" height="180" as="geometry" />
        </mxCell>
        <mxCell id="FqCtr0j4OcyA-703P5As-2" value="" style="shape=tableRow;horizontal=0;startSize=0;swimlaneHead=0;swimlaneBody=0;fillColor=none;collapsible=0;dropTarget=0;points=[[0,0.5],[1,0.5]];portConstraint=eastwest;top=0;left=0;right=0;bottom=1;" parent="FqCtr0j4OcyA-703P5As-1" vertex="1">
          <mxGeometry y="30" width="180" height="30" as="geometry" />
        </mxCell>
        <mxCell id="FqCtr0j4OcyA-703P5As-3" value="PK" style="shape=partialRectangle;connectable=0;fillColor=none;top=0;left=0;bottom=0;right=0;fontStyle=1;overflow=hidden;whiteSpace=wrap;html=1;" parent="FqCtr0j4OcyA-703P5As-2" vertex="1">
          <mxGeometry width="30" height="30" as="geometry">
            <mxRectangle width="30" height="30" as="alternateBounds" />
          </mxGeometry>
        </mxCell>
        <mxCell id="FqCtr0j4OcyA-703P5As-4" value="ID" style="shape=partialRectangle;connectable=0;fillColor=none;top=0;left=0;bottom=0;right=0;align=left;spacingLeft=6;fontStyle=5;overflow=hidden;whiteSpace=wrap;html=1;" parent="FqCtr0j4OcyA-703P5As-2" vertex="1">
          <mxGeometry x="30" width="150" height="30" as="geometry">
            <mxRectangle width="150" height="30" as="alternateBounds" />
          </mxGeometry>
        </mxCell>
        <mxCell id="FqCtr0j4OcyA-703P5As-5" value="" style="shape=tableRow;horizontal=0;startSize=0;swimlaneHead=0;swimlaneBody=0;fillColor=none;collapsible=0;dropTarget=0;points=[[0,0.5],[1,0.5]];portConstraint=eastwest;top=0;left=0;right=0;bottom=0;" parent="FqCtr0j4OcyA-703P5As-1" vertex="1">
          <mxGeometry y="60" width="180" height="30" as="geometry" />
        </mxCell>
        <mxCell id="FqCtr0j4OcyA-703P5As-6" value="" style="shape=partialRectangle;connectable=0;fillColor=none;top=0;left=0;bottom=0;right=0;editable=1;overflow=hidden;whiteSpace=wrap;html=1;" parent="FqCtr0j4OcyA-703P5As-5" vertex="1">
          <mxGeometry width="30" height="30" as="geometry">
            <mxRectangle width="30" height="30" as="alternateBounds" />
          </mxGeometry>
        </mxCell>
        <mxCell id="FqCtr0j4OcyA-703P5As-7" value="Nombre" style="shape=partialRectangle;connectable=0;fillColor=none;top=0;left=0;bottom=0;right=0;align=left;spacingLeft=6;overflow=hidden;whiteSpace=wrap;html=1;" parent="FqCtr0j4OcyA-703P5As-5" vertex="1">
          <mxGeometry x="30" width="150" height="30" as="geometry">
            <mxRectangle width="150" height="30" as="alternateBounds" />
          </mxGeometry>
        </mxCell>
        <mxCell id="FqCtr0j4OcyA-703P5As-8" value="" style="shape=tableRow;horizontal=0;startSize=0;swimlaneHead=0;swimlaneBody=0;fillColor=none;collapsible=0;dropTarget=0;points=[[0,0.5],[1,0.5]];portConstraint=eastwest;top=0;left=0;right=0;bottom=0;" parent="FqCtr0j4OcyA-703P5As-1" vertex="1">
          <mxGeometry y="90" width="180" height="30" as="geometry" />
        </mxCell>
        <mxCell id="FqCtr0j4OcyA-703P5As-9" value="" style="shape=partialRectangle;connectable=0;fillColor=none;top=0;left=0;bottom=0;right=0;editable=1;overflow=hidden;whiteSpace=wrap;html=1;" parent="FqCtr0j4OcyA-703P5As-8" vertex="1">
          <mxGeometry width="30" height="30" as="geometry">
            <mxRectangle width="30" height="30" as="alternateBounds" />
          </mxGeometry>
        </mxCell>
        <mxCell id="FqCtr0j4OcyA-703P5As-10" value="Apellido" style="shape=partialRectangle;connectable=0;fillColor=none;top=0;left=0;bottom=0;right=0;align=left;spacingLeft=6;overflow=hidden;whiteSpace=wrap;html=1;" parent="FqCtr0j4OcyA-703P5As-8" vertex="1">
          <mxGeometry x="30" width="150" height="30" as="geometry">
            <mxRectangle width="150" height="30" as="alternateBounds" />
          </mxGeometry>
        </mxCell>
        <mxCell id="FqCtr0j4OcyA-703P5As-11" value="" style="shape=tableRow;horizontal=0;startSize=0;swimlaneHead=0;swimlaneBody=0;fillColor=none;collapsible=0;dropTarget=0;points=[[0,0.5],[1,0.5]];portConstraint=eastwest;top=0;left=0;right=0;bottom=0;" parent="FqCtr0j4OcyA-703P5As-1" vertex="1">
          <mxGeometry y="120" width="180" height="30" as="geometry" />
        </mxCell>
        <mxCell id="FqCtr0j4OcyA-703P5As-12" value="" style="shape=partialRectangle;connectable=0;fillColor=none;top=0;left=0;bottom=0;right=0;editable=1;overflow=hidden;whiteSpace=wrap;html=1;" parent="FqCtr0j4OcyA-703P5As-11" vertex="1">
          <mxGeometry width="30" height="30" as="geometry">
            <mxRectangle width="30" height="30" as="alternateBounds" />
          </mxGeometry>
        </mxCell>
        <mxCell id="FqCtr0j4OcyA-703P5As-13" value="Género" style="shape=partialRectangle;connectable=0;fillColor=none;top=0;left=0;bottom=0;right=0;align=left;spacingLeft=6;overflow=hidden;whiteSpace=wrap;html=1;" parent="FqCtr0j4OcyA-703P5As-11" vertex="1">
          <mxGeometry x="30" width="150" height="30" as="geometry">
            <mxRectangle width="150" height="30" as="alternateBounds" />
          </mxGeometry>
        </mxCell>
        <mxCell id="FqCtr0j4OcyA-703P5As-14" style="shape=tableRow;horizontal=0;startSize=0;swimlaneHead=0;swimlaneBody=0;fillColor=none;collapsible=0;dropTarget=0;points=[[0,0.5],[1,0.5]];portConstraint=eastwest;top=0;left=0;right=0;bottom=0;" parent="FqCtr0j4OcyA-703P5As-1" vertex="1">
          <mxGeometry y="150" width="180" height="30" as="geometry" />
        </mxCell>
        <mxCell id="FqCtr0j4OcyA-703P5As-15" style="shape=partialRectangle;connectable=0;fillColor=none;top=0;left=0;bottom=0;right=0;editable=1;overflow=hidden;whiteSpace=wrap;html=1;" parent="FqCtr0j4OcyA-703P5As-14" vertex="1">
          <mxGeometry width="30" height="30" as="geometry">
            <mxRectangle width="30" height="30" as="alternateBounds" />
          </mxGeometry>
        </mxCell>
        <mxCell id="FqCtr0j4OcyA-703P5As-16" value="Edad" style="shape=partialRectangle;connectable=0;fillColor=none;top=0;left=0;bottom=0;right=0;align=left;spacingLeft=6;overflow=hidden;whiteSpace=wrap;html=1;" parent="FqCtr0j4OcyA-703P5As-14" vertex="1">
          <mxGeometry x="30" width="150" height="30" as="geometry">
            <mxRectangle width="150" height="30" as="alternateBounds" />
          </mxGeometry>
        </mxCell>
        <mxCell id="FqCtr0j4OcyA-703P5As-17" value="Productor" style="shape=table;startSize=30;container=1;collapsible=1;childLayout=tableLayout;fixedRows=1;rowLines=0;fontStyle=1;align=center;resizeLast=1;html=1;fillColor=#dae8fc;strokeColor=#6c8ebf;" parent="1" vertex="1">
          <mxGeometry x="360" y="560" width="180" height="180" as="geometry" />
        </mxCell>
        <mxCell id="FqCtr0j4OcyA-703P5As-18" value="" style="shape=tableRow;horizontal=0;startSize=0;swimlaneHead=0;swimlaneBody=0;fillColor=none;collapsible=0;dropTarget=0;points=[[0,0.5],[1,0.5]];portConstraint=eastwest;top=0;left=0;right=0;bottom=1;" parent="FqCtr0j4OcyA-703P5As-17" vertex="1">
          <mxGeometry y="30" width="180" height="30" as="geometry" />
        </mxCell>
        <mxCell id="FqCtr0j4OcyA-703P5As-19" value="PK" style="shape=partialRectangle;connectable=0;fillColor=none;top=0;left=0;bottom=0;right=0;fontStyle=1;overflow=hidden;whiteSpace=wrap;html=1;" parent="FqCtr0j4OcyA-703P5As-18" vertex="1">
          <mxGeometry width="30" height="30" as="geometry">
            <mxRectangle width="30" height="30" as="alternateBounds" />
          </mxGeometry>
        </mxCell>
        <mxCell id="FqCtr0j4OcyA-703P5As-20" value="ID" style="shape=partialRectangle;connectable=0;fillColor=none;top=0;left=0;bottom=0;right=0;align=left;spacingLeft=6;fontStyle=5;overflow=hidden;whiteSpace=wrap;html=1;" parent="FqCtr0j4OcyA-703P5As-18" vertex="1">
          <mxGeometry x="30" width="150" height="30" as="geometry">
            <mxRectangle width="150" height="30" as="alternateBounds" />
          </mxGeometry>
        </mxCell>
        <mxCell id="FqCtr0j4OcyA-703P5As-21" value="" style="shape=tableRow;horizontal=0;startSize=0;swimlaneHead=0;swimlaneBody=0;fillColor=none;collapsible=0;dropTarget=0;points=[[0,0.5],[1,0.5]];portConstraint=eastwest;top=0;left=0;right=0;bottom=0;" parent="FqCtr0j4OcyA-703P5As-17" vertex="1">
          <mxGeometry y="60" width="180" height="30" as="geometry" />
        </mxCell>
        <mxCell id="FqCtr0j4OcyA-703P5As-22" value="" style="shape=partialRectangle;connectable=0;fillColor=none;top=0;left=0;bottom=0;right=0;editable=1;overflow=hidden;whiteSpace=wrap;html=1;" parent="FqCtr0j4OcyA-703P5As-21" vertex="1">
          <mxGeometry width="30" height="30" as="geometry">
            <mxRectangle width="30" height="30" as="alternateBounds" />
          </mxGeometry>
        </mxCell>
        <mxCell id="FqCtr0j4OcyA-703P5As-23" value="Nombre" style="shape=partialRectangle;connectable=0;fillColor=none;top=0;left=0;bottom=0;right=0;align=left;spacingLeft=6;overflow=hidden;whiteSpace=wrap;html=1;" parent="FqCtr0j4OcyA-703P5As-21" vertex="1">
          <mxGeometry x="30" width="150" height="30" as="geometry">
            <mxRectangle width="150" height="30" as="alternateBounds" />
          </mxGeometry>
        </mxCell>
        <mxCell id="FqCtr0j4OcyA-703P5As-24" value="" style="shape=tableRow;horizontal=0;startSize=0;swimlaneHead=0;swimlaneBody=0;fillColor=none;collapsible=0;dropTarget=0;points=[[0,0.5],[1,0.5]];portConstraint=eastwest;top=0;left=0;right=0;bottom=0;" parent="FqCtr0j4OcyA-703P5As-17" vertex="1">
          <mxGeometry y="90" width="180" height="30" as="geometry" />
        </mxCell>
        <mxCell id="FqCtr0j4OcyA-703P5As-25" value="" style="shape=partialRectangle;connectable=0;fillColor=none;top=0;left=0;bottom=0;right=0;editable=1;overflow=hidden;whiteSpace=wrap;html=1;" parent="FqCtr0j4OcyA-703P5As-24" vertex="1">
          <mxGeometry width="30" height="30" as="geometry">
            <mxRectangle width="30" height="30" as="alternateBounds" />
          </mxGeometry>
        </mxCell>
        <mxCell id="FqCtr0j4OcyA-703P5As-26" value="Apellido" style="shape=partialRectangle;connectable=0;fillColor=none;top=0;left=0;bottom=0;right=0;align=left;spacingLeft=6;overflow=hidden;whiteSpace=wrap;html=1;" parent="FqCtr0j4OcyA-703P5As-24" vertex="1">
          <mxGeometry x="30" width="150" height="30" as="geometry">
            <mxRectangle width="150" height="30" as="alternateBounds" />
          </mxGeometry>
        </mxCell>
        <mxCell id="FqCtr0j4OcyA-703P5As-27" value="" style="shape=tableRow;horizontal=0;startSize=0;swimlaneHead=0;swimlaneBody=0;fillColor=none;collapsible=0;dropTarget=0;points=[[0,0.5],[1,0.5]];portConstraint=eastwest;top=0;left=0;right=0;bottom=0;" parent="FqCtr0j4OcyA-703P5As-17" vertex="1">
          <mxGeometry y="120" width="180" height="30" as="geometry" />
        </mxCell>
        <mxCell id="FqCtr0j4OcyA-703P5As-28" value="" style="shape=partialRectangle;connectable=0;fillColor=none;top=0;left=0;bottom=0;right=0;editable=1;overflow=hidden;whiteSpace=wrap;html=1;" parent="FqCtr0j4OcyA-703P5As-27" vertex="1">
          <mxGeometry width="30" height="30" as="geometry">
            <mxRectangle width="30" height="30" as="alternateBounds" />
          </mxGeometry>
        </mxCell>
        <mxCell id="FqCtr0j4OcyA-703P5As-29" value="Género" style="shape=partialRectangle;connectable=0;fillColor=none;top=0;left=0;bottom=0;right=0;align=left;spacingLeft=6;overflow=hidden;whiteSpace=wrap;html=1;" parent="FqCtr0j4OcyA-703P5As-27" vertex="1">
          <mxGeometry x="30" width="150" height="30" as="geometry">
            <mxRectangle width="150" height="30" as="alternateBounds" />
          </mxGeometry>
        </mxCell>
        <mxCell id="FqCtr0j4OcyA-703P5As-30" style="shape=tableRow;horizontal=0;startSize=0;swimlaneHead=0;swimlaneBody=0;fillColor=none;collapsible=0;dropTarget=0;points=[[0,0.5],[1,0.5]];portConstraint=eastwest;top=0;left=0;right=0;bottom=0;" parent="FqCtr0j4OcyA-703P5As-17" vertex="1">
          <mxGeometry y="150" width="180" height="30" as="geometry" />
        </mxCell>
        <mxCell id="FqCtr0j4OcyA-703P5As-31" style="shape=partialRectangle;connectable=0;fillColor=none;top=0;left=0;bottom=0;right=0;editable=1;overflow=hidden;whiteSpace=wrap;html=1;" parent="FqCtr0j4OcyA-703P5As-30" vertex="1">
          <mxGeometry width="30" height="30" as="geometry">
            <mxRectangle width="30" height="30" as="alternateBounds" />
          </mxGeometry>
        </mxCell>
        <mxCell id="FqCtr0j4OcyA-703P5As-32" value="Edad" style="shape=partialRectangle;connectable=0;fillColor=none;top=0;left=0;bottom=0;right=0;align=left;spacingLeft=6;overflow=hidden;whiteSpace=wrap;html=1;" parent="FqCtr0j4OcyA-703P5As-30" vertex="1">
          <mxGeometry x="30" width="150" height="30" as="geometry">
            <mxRectangle width="150" height="30" as="alternateBounds" />
          </mxGeometry>
        </mxCell>
      </root>
    </mxGraphModel>
  </diagram>
</mxfile>
